<?xml version="1.0" encoding="UTF-8" standalone="no"?>
<svg
   height="100%"
   style="fill-rule:evenodd;clip-rule:evenodd;stroke-linejoin:round;stroke-miterlimit:2;"
   version="1.1"
   viewBox="0 0 512 512"
   width="100%"
   xml:space="preserve"
   id="svg185"
   sodipodi:docname="fb2.svg"
   inkscape:version="1.2 (dc2aedaf03, 2022-05-15)"
   xmlns:inkscape="http://www.inkscape.org/namespaces/inkscape"
   xmlns:sodipodi="http://sodipodi.sourceforge.net/DTD/sodipodi-0.dtd"
   xmlns="http://www.w3.org/2000/svg"
   xmlns:svg="http://www.w3.org/2000/svg"><defs
     id="defs189" /><sodipodi:namedview
     id="namedview187"
     pagecolor="#ffffff"
     bordercolor="#000000"
     borderopacity="0.25"
     inkscape:showpageshadow="2"
     inkscape:pageopacity="0.0"
     inkscape:pagecheckerboard="0"
     inkscape:deskcolor="#d1d1d1"
     showgrid="false"
     inkscape:zoom="1"
     inkscape:cx="103.5"
     inkscape:cy="256"
     inkscape:window-width="1366"
     inkscape:window-height="715"
     inkscape:window-x="-8"
     inkscape:window-y="-8"
     inkscape:window-maximized="1"
     inkscape:current-layer="svg185" /><g
     id="g183"
     transform="matrix(0.32,0,0,0.32,174.08,174.08)"><path
       d="M 512,256 C 512,114.615 397.385,0 256,0 114.615,0 0,114.615 0,256 0,383.777 93.616,489.685 216,508.89 V 330 h -65 v -74 h 65 v -56.4 c 0,-64.16 38.219,-99.6 96.695,-99.6 28.009,0 57.305,5 57.305,5 v 63 H 337.719 C 305.918,168 296,187.733 296,207.978 V 256 h 71 l -11.35,74 H 296 V 508.89 C 418.385,489.685 512,383.777 512,256 Z"
       style="fill:#1877f2;fill-rule:nonzero"
       id="path179" /><path
       d="M 355.65,330 367,256 H 296 V 207.978 C 296,187.733 305.917,168 337.719,168 H 370 v -63 c 0,0 -29.297,-5 -57.305,-5 C 254.219,100 216,135.44 216,199.6 V 256 h -65 v 74 h 65 v 178.89 c 13.033,2.045 26.392,3.11 40,3.11 13.608,0 26.966,-1.065 40,-3.11 V 330 Z"
       style="fill:#ffffff;fill-rule:nonzero"
       id="path181" /></g></svg>
