<?xml version="1.0" encoding="UTF-8" standalone="no"?>
<svg
   id="Layer_1"
   version="1.1"
   viewBox="0 0 32 32"
   xml:space="preserve"
   sodipodi:docname="tt.svg"
   width="32"
   height="32"
   inkscape:version="1.2 (dc2aedaf03, 2022-05-15)"
   xmlns:inkscape="http://www.inkscape.org/namespaces/inkscape"
   xmlns:sodipodi="http://sodipodi.sourceforge.net/DTD/sodipodi-0.dtd"
   xmlns="http://www.w3.org/2000/svg"
   xmlns:svg="http://www.w3.org/2000/svg"><defs
     id="defs391" /><sodipodi:namedview
     id="namedview389"
     pagecolor="#ffffff"
     bordercolor="#000000"
     borderopacity="0.25"
     inkscape:showpageshadow="2"
     inkscape:pageopacity="0.0"
     inkscape:pagecheckerboard="0"
     inkscape:deskcolor="#d1d1d1"
     showgrid="false"
     inkscape:zoom="0.512"
     inkscape:cx="500"
     inkscape:cy="500"
     inkscape:window-width="1366"
     inkscape:window-height="715"
     inkscape:window-x="-8"
     inkscape:window-y="-8"
     inkscape:window-maximized="1"
     inkscape:current-layer="Layer_1" /><style
     type="text/css"
     id="style374">
	.st0{fill:#1DA1F2;}
	.st1{fill:#FFFFFF;}
	.st2{fill:none;}
</style><title
     id="title376" /><g
     id="g386"
     transform="scale(0.032)"><g
       id="Dark_Blue"><path
         class="st0"
         d="m 500,0 v 0 c 276.1,0 500,223.9 500,500 v 0 c 0,276.1 -223.9,500 -500,500 v 0 C 223.9,1000 0,776.1 0,500 v 0 C 0,223.9 223.9,0 500,0 Z"
         id="path378" /></g><g
       id="Logo_FIXED"><path
         class="st1"
         d="m 384,754 c 235.8,0 364.9,-195.4 364.9,-364.9 0,-5.5 0,-11.1 -0.4,-16.6 25.1,-18.2 46.8,-40.6 64,-66.4 -23.4,10.4 -48.2,17.2 -73.6,20.2 26.8,-16 46.8,-41.2 56.4,-70.9 -25.2,14.9 -52.7,25.5 -81.4,31.1 -48.6,-51.6 -129.8,-54.1 -181.4,-5.6 -33.3,31.3 -47.4,78 -37.1,122.5 -103.1,-5.2 -199.2,-53.9 -264.3,-134 -34,58.6 -16.7,133.5 39.7,171.2 -20.4,-0.6 -40.4,-6.1 -58.2,-16 0,0.5 0,1.1 0,1.6 0,61 43,113.6 102.9,125.7 -18.9,5.1 -38.7,5.9 -57.9,2.2 16.8,52.2 64.9,88 119.8,89.1 -45.4,35.7 -101.5,55.1 -159.2,55 -10.2,0 -20.4,-0.6 -30.5,-1.9 58.4,37.7 126.7,57.7 196.3,57.6"
         id="path381" /><path
         class="st2"
         d="m 500,0 v 0 c 276.1,0 500,223.9 500,500 v 0 c 0,276.1 -223.9,500 -500,500 v 0 C 223.9,1000 0,776.1 0,500 v 0 C 0,223.9 223.9,0 500,0 Z"
         id="path383" /></g></g></svg>
