<?xml version="1.0" encoding="UTF-8" standalone="no"?>
<svg
   id="Layer_1"
   version="1.1"
   viewBox="0 0 32 32"
   xml:space="preserve"
   sodipodi:docname="yt.svg"
   width="32"
   height="32"
   inkscape:version="1.2 (dc2aedaf03, 2022-05-15)"
   xmlns:inkscape="http://www.inkscape.org/namespaces/inkscape"
   xmlns:sodipodi="http://sodipodi.sourceforge.net/DTD/sodipodi-0.dtd"
   xmlns="http://www.w3.org/2000/svg"
   xmlns:svg="http://www.w3.org/2000/svg"><defs
     id="defs439" /><sodipodi:namedview
     id="namedview437"
     pagecolor="#ffffff"
     bordercolor="#000000"
     borderopacity="0.25"
     inkscape:showpageshadow="2"
     inkscape:pageopacity="0.0"
     inkscape:pagecheckerboard="0"
     inkscape:deskcolor="#d1d1d1"
     showgrid="false"
     inkscape:zoom="0.512"
     inkscape:cx="500"
     inkscape:cy="500"
     inkscape:window-width="1366"
     inkscape:window-height="715"
     inkscape:window-x="-8"
     inkscape:window-y="-8"
     inkscape:window-maximized="1"
     inkscape:current-layer="Layer_1" /><style
     type="text/css"
     id="style426">
	.st0{fill:#FF0000;}
	.st1{fill:#FFFFFF;}
</style><title
     id="title428" /><g
     id="g434"
     transform="scale(0.032)"><path
       class="st0"
       d="m 500,1000 v 0 C 223.9,1000 0,776.1 0,500 v 0 C 0,223.9 223.9,0 500,0 v 0 c 276.1,0 500,223.9 500,500 v 0 c 0,276.1 -223.9,500 -500,500 z"
       id="path430" /><path
       class="st1"
       d="M 818.2,339.1 C 810.6,310.3 788.1,287.7 759.5,280 707.7,266 500.1,266 500.1,266 c 0,0 -207.7,0 -259.4,14 -28.6,7.7 -51.1,30.3 -58.7,59.1 -14,52.1 -14,160.9 -14,160.9 0,0 0,108.8 13.9,160.9 7.6,28.8 30.1,51.4 58.7,59.1 51.8,14 259.4,14 259.4,14 0,0 207.7,0 259.4,-14 28.6,-7.7 51.1,-30.3 58.7,-59.1 C 832,608.8 832,500 832,500 c 0,0 0,-108.8 -13.8,-160.9 z M 432.1,598.7 V 401.3 L 605.6,500 Z"
       id="path432" /></g></svg>
